HIERARCHY
ROOT Hips
{
	OFFSET	0.00	0.00	0.00
	CHANNELS 6 Xposition Yposition Zposition Zrotation Xrotation Yrotation
	JOINT LeftUpLeg
	{
		OFFSET	 0.126116	-0.065224	 0.014019
		CHANNELS 3 Zrotation Xrotation Yrotation
		JOINT LeftLeg
		{
			OFFSET	 0.000000	 0.569914	 0.000000
			CHANNELS 3 Zrotation Xrotation Yrotation
			JOINT LeftFoot
			{
				OFFSET	 0.000000	 0.544423	 0.000000
				CHANNELS 3 Zrotation Xrotation Yrotation
				JOINT LeftToeBase
				{
					OFFSET	 0.000000	 0.207117	 0.000000
					CHANNELS 3 Zrotation Xrotation Yrotation
					End Site
					{
						OFFSET	 0.000000	 0.207117	 0.000000
					}
				}
			}
		}
	}
	JOINT RightUpLeg
	{
		OFFSET	-0.124023	-0.065224	 0.008373
		CHANNELS 3 Zrotation Xrotation Yrotation
		JOINT RightLeg
		{
			OFFSET	 0.000000	 0.570047	 0.000000
			CHANNELS 3 Zrotation Xrotation Yrotation
			JOINT RightFoot
			{
				OFFSET	 0.000000	 0.544354	 0.000000
				CHANNELS 3 Zrotation Xrotation Yrotation
				JOINT RightToeBase
				{
					OFFSET	 0.000000	 0.207540	 0.000000
					CHANNELS 3 Zrotation Xrotation Yrotation
					End Site
					{
						OFFSET	 0.000000	 0.207540	 0.000000
					}
				}
			}
		}
	}
	JOINT Spine
	{
		OFFSET	 0.000184	 0.117403	 0.007763
		CHANNELS 3 Zrotation Xrotation Yrotation
		JOINT Spine1
		{
			OFFSET	 0.000000	 0.137269	 0.000000
			CHANNELS 3 Zrotation Xrotation Yrotation
			JOINT Spine2
			{
				OFFSET	 0.000000	 0.156879	 0.000000
				CHANNELS 3 Zrotation Xrotation Yrotation
				JOINT LeftShoulder
				{
					OFFSET	 0.080501	 0.160143	 0.002496
					CHANNELS 3 Zrotation Xrotation Yrotation
					JOINT LeftArm
					{
						OFFSET	 0.000000	 0.164363	 0.000000
						CHANNELS 3 Zrotation Xrotation Yrotation
						JOINT LeftForeArm
						{
							OFFSET	 0.000000	 0.364576	 0.000000
							CHANNELS 3 Zrotation Xrotation Yrotation
							JOINT LeftHand
							{
								OFFSET	 0.000000	 0.360812	 0.000000
								CHANNELS 3 Zrotation Xrotation Yrotation
								JOINT LeftHandIndex1
								{
									OFFSET	 0.000000	 0.086006	 0.000000
									CHANNELS 3 Zrotation Xrotation Yrotation
									JOINT LeftHandIndex2
									{
										OFFSET	 0.000000	 0.047237	 0.000000
										CHANNELS 3 Zrotation Xrotation Yrotation
										JOINT LeftHandIndex3
										{
											OFFSET	-0.004284	 0.038165	 0.000551
											CHANNELS 3 Zrotation Xrotation Yrotation
											End Site
											{
												OFFSET	-0.004284	 0.038165	 0.000551
											}
										}
									}
								}
							}
						}
					}
				}
				JOINT Neck
				{
					OFFSET	 0.000000	 0.176489	 0.000000
					CHANNELS 3 Zrotation Xrotation Yrotation
					JOINT Head
					{
						OFFSET	 0.000000	 0.077941	 0.001747
						CHANNELS 3 Zrotation Xrotation Yrotation
						End Site
						{
							OFFSET	 0.000000	 0.077941	 0.001747
						}
					}
				}
				JOINT RightShoulder
				{
					OFFSET	-0.080363	 0.159706	-0.000306
					CHANNELS 3 Zrotation Xrotation Yrotation
					JOINT RightArm
					{
						OFFSET	 0.000000	 0.164196	 0.000000
						CHANNELS 3 Zrotation Xrotation Yrotation
						JOINT RightForeArm
						{
							OFFSET	 0.000000	 0.365611	 0.000000
							CHANNELS 3 Zrotation Xrotation Yrotation
							JOINT RightHand
							{
								OFFSET	 0.000000	 0.360648	 0.000000
								CHANNELS 3 Zrotation Xrotation Yrotation
								JOINT RightHandIndex1
								{
									OFFSET	 0.000000	 0.069977	 0.000000
									CHANNELS 3 Zrotation Xrotation Yrotation
									JOINT RightHandIndex2
									{
										OFFSET	 0.000000	 0.052305	 0.000000
										CHANNELS 3 Zrotation Xrotation Yrotation
										JOINT RightHandIndex3
										{
											OFFSET	 0.009002	 0.042196	 0.000782
											CHANNELS 3 Zrotation Xrotation Yrotation
											End Site
											{
												OFFSET	 0.009002	 0.042196	 0.000782
											}
										}
									}
								}
							}
						}
					}
				}
			}
		}
	}
}
MOTION
Frames:    6
Frame Time: 0.03333334
-0.017461	 1.255631	 0.115020	 4.780826	 0.287424	 173.993400	 174.539400	 15.263180	 38.922370	 3.139874	-30.713650	 1.450895	 53.573140	 48.977680	-69.556920	 4.912824	 28.009660	-6.307254	-165.368500	-2.508957	-31.691800	-0.441090	-5.104427	 2.129505	-50.659730	 49.751340	 48.305620	-0.378033	 31.173540	 1.634566	 1.340043	 3.977911	-9.752674	 9.893634	 8.580707	-5.521727	-8.520157	-6.613757	 17.963560	-112.558100	 3.121704	 88.313250	-11.935200	 51.287220	 36.763760	 30.794330	-1.546229	 0.993494	-39.034470	-11.240910	-81.846160	-8.008479	 12.516580	-5.835385	-7.228779	 12.662410	 2.803793	 4.963066	-4.014628	-0.346955	 1.512997	-13.906860	 1.355757	-2.026825	 8.938025	-23.890490	 109.119200	 0.679548	-88.597680	-13.808200	 68.649410	 13.094250	-5.093933	-0.470797	 41.357980	-37.939140	 7.328085	-83.406900	 2.007351	 8.286554	 8.960491	 15.202920	 20.251900	-6.344989	-8.239867	-2.131385	 0.447455
-0.017566	 1.255830	 0.114790	 4.725403	 0.236493	 174.096300	 174.430100	 15.352200	 39.030340	 3.148612	-30.783720	 1.498385	 53.475570	 48.942050	-69.515390	 4.912827	 28.009680	-6.307239	-165.423700	-2.452570	-31.598520	-0.441091	-5.104383	 2.023099	-50.652480	 49.634990	 48.365780	-0.386969	 31.184460	 1.643428	 1.319547	 3.991848	-9.757898	 9.691545	 8.408000	-5.483417	-8.287298	-6.417355	 17.927970	-112.507200	 3.058090	 88.304530	-12.006740	 51.409380	 36.705940	 30.916140	-1.551702	 0.994448	-39.929880	-11.662670	-81.407620	-7.949944	 12.564560	-5.849895	-7.229045	 12.651280	 2.802274	 4.963066	-4.014628	-0.346955	 1.460556	-13.827200	 1.382586	-2.000826	 9.164708	-24.054600	 109.055700	 0.728056	-88.622250	-13.766050	 68.586660	 13.261200	-5.100388	-0.471326	 41.201870	-38.155520	 7.185898	-83.443300	 1.956986	 8.150687	 8.959232	 15.203120	 20.282040	-6.353237	-8.239867	-2.131385	 0.447455
-0.017734	 1.255866	 0.114423	 4.648325	 0.165269	 174.239300	 174.270000	 15.477370	 39.188720	 3.162755	-30.896470	 1.564765	 53.400880	 48.905320	-69.511700	 4.912831	 28.009700	-6.307218	-165.500900	-2.378052	-31.467780	-0.441090	-5.104376	 1.878787	-50.683240	 49.501490	 48.479260	-0.399417	 31.199670	 1.655773	 1.292856	 4.012823	-9.757865	 9.404567	 8.167509	-5.425236	-7.961305	-6.143587	 17.876240	-112.436500	 2.969510	 88.292480	-12.047240	 51.604560	 36.578190	 30.974960	-1.554263	 0.992781	-41.095740	-12.280530	-80.797850	-7.868396	 12.631340	-5.870186	-7.229416	 12.635780	 2.800157	 4.963066	-4.014628	-0.346955	 1.387495	-13.716300	 1.420056	-1.963194	 9.480181	-24.283840	 108.967300	 0.795662	-88.656430	-11.293120	 68.767860	 11.245040	-6.916012	-0.638398	 40.967980	-37.688890	 6.576940	-83.804050	 1.886872	 7.961481	 8.957279	 15.203410	 20.324010	-6.364725	-8.239867	-2.131385	 0.447455
-0.017986	 1.255706	 0.113870	 4.550552	 0.075034	 174.420100	 174.055300	 15.638050	 39.396870	 3.183630	-31.062610	 1.649173	 53.358310	 48.872700	-69.555730	 4.912837	 28.009740	-6.307191	-165.598100	-2.290252	-31.300360	-0.441339	-5.107198	 1.701990	-50.754780	 49.358630	 48.645500	-0.415200	 31.218930	 1.671426	 1.261654	 4.042274	-9.746591	 9.031762	 7.863992	-5.344744	-7.545144	-5.797353	 17.807210	-112.346900	 2.857212	 88.277360	-12.065970	 51.861900	 36.388930	 30.973400	-1.554040	 0.988698	-42.492210	-13.107910	-80.026470	-7.764984	 12.715930	-5.896049	-7.229887	 12.616130	 2.797475	 4.963066	-4.014628	-0.346955	 1.294846	-13.575830	 1.467725	-1.913114	 9.879622	-24.575640	 108.855300	 0.881413	-88.699580	-7.610198	 68.984700	 8.176041	-9.534139	-0.878134	 40.659650	-36.976990	 5.747194	-84.278780	 1.798049	 7.721690	 8.954471	 15.203790	 20.377200	-6.379289	-8.239867	-2.131385	 0.447455
-0.018350	 1.255309	 0.113068	 4.430739	-0.036793	 174.641100	 173.776700	 15.838740	 39.660240	 3.213186	-31.296940	 1.752825	 53.355660	 48.848530	-69.658240	 4.912844	 28.009770	-6.307159	-165.110000	-1.351746	-31.073870	-0.625492	-7.219062	 1.474424	-51.725890	 49.880420	 50.153980	-0.434556	 31.242540	 1.690622	 1.227864	 4.080456	-9.716627	 8.561284	 7.494299	-5.236897	-7.030500	-5.374351	 17.717270	-112.237100	 2.719547	 88.259090	-12.072690	 52.176910	 36.140710	 30.914290	-1.551166	 0.982077	-44.108710	-14.185490	-79.083340	-7.638148	 12.819540	-5.927971	-7.230465	 12.592050	 2.794188	 4.963066	-4.014628	-0.346955	 1.181210	-13.403770	 1.526428	-1.848089	 10.368560	-24.935210	 108.718200	 0.986624	-88.752240	-4.113489	 69.070660	 5.363677	-11.885020	-1.091802	 40.284680	-36.487160	 4.951364	-84.656210	 1.689236	 7.427804	 8.950517	 15.204280	 20.442380	-6.397144	-8.239867	-2.131385	 0.447455
-0.018841	 1.254664	 0.111958	 4.282089	-0.174693	 174.907200	 173.425600	 16.080670	 39.983100	 3.251379	-31.597800	 1.875472	 53.393680	 48.835020	-69.818630	 4.912852	 28.009820	-6.307121	-164.672700	-0.406141	-30.817470	-0.808211	-9.295067	 1.212335	-52.758350	 50.369350	 51.724530	-0.457638	 31.270660	 1.713513	 1.187775	 4.126750	-9.661283	 7.978102	 7.052499	-5.098364	-6.408970	-4.870592	 17.602370	-112.106400	 2.555488	 88.237640	-12.065420	 52.543900	 35.827240	 30.785490	-1.545123	 0.972673	-45.909120	-15.555980	-77.966410	-7.486864	 12.942910	-5.966333	-7.231155	 12.563360	 2.790272	 4.963066	-4.014628	-0.346955	 1.045665	-13.198890	 1.596782	-1.765353	 10.950220	-25.366440	 108.554900	 1.112149	-88.814640	-0.678371	 69.044850	 2.699194	-14.066120	-1.288287	 39.841770	-36.177020	 4.171905	-84.939140	 1.559631	 7.077597	 8.945075	 15.204880	 20.520050	-6.418431	-8.239867	-2.131385	 0.447455
